<svg width="16" height="16" viewBox="0 0 16 16" fill="none" xmlns="http://www.w3.org/2000/svg">
<path fill-rule="evenodd" clip-rule="evenodd" d="M11.1197 4.17757C11.3899 4.42777 11.406 4.84958 11.1558 5.11969L5.15165 11.6019C4.66 12.1327 3.84017 12.1327 3.34851 11.6019L0.844322 8.89833C0.594126 8.6282 0.610274 8.2064 0.880395 7.9562C1.15051 7.706 1.57231 7.7222 1.82251 7.99227L4.25008 10.6131L10.1777 4.21365C10.4279 3.94353 10.8497 3.92738 11.1197 4.17757ZM14.4534 4.17757C14.7235 4.42777 14.7397 4.84957 14.4895 5.11969L8.48528 11.6019C8.23508 11.872 7.81328 11.8882 7.54315 11.638C7.27302 11.3878 7.25688 10.966 7.50708 10.6959L13.5113 4.21365C13.7615 3.94353 14.1833 3.92738 14.4534 4.17757Z" fill="#25D366"/>
</svg>
