<svg width="30" height="30" viewBox="0 0 30 30" fill="none" xmlns="http://www.w3.org/2000/svg">
<g clip-path="url(#clip0_274755_1433)">
<path d="M24.7774 9.22142L25.9536 8.0452C26.4107 7.58812 26.4107 6.847 25.9536 6.39015C25.4965 5.93307 24.7556 5.93307 24.2986 6.39015L23.1223 7.56638C21.1489 5.92209 18.7509 4.92874 16.1929 4.6962V2.34077H17.3243C17.9707 2.34077 18.4946 1.81664 18.4946 1.17027C18.4946 0.523911 17.9707 0 17.3243 0H12.7208C12.0744 0 11.5505 0.523911 11.5505 1.17027C11.5505 1.81664 12.0744 2.34077 12.7208 2.34077H13.8522V4.6962C7.44896 5.27847 2.34375 10.6577 2.34375 17.3211C2.34375 24.3285 8.0143 30 15.0227 30C22.0299 30 27.7013 24.3295 27.7013 17.3211C27.7013 14.3278 26.6705 11.4931 24.7774 9.22142ZM15.0224 27.6592C9.32213 27.6592 4.6843 23.0216 4.6843 17.3211C4.6843 11.6208 9.32213 6.98318 15.0224 6.98318C20.723 6.98318 25.3606 11.6208 25.3606 17.3211C25.3606 23.0216 20.723 27.6592 15.0224 27.6592ZM20.4462 11.8975C20.9033 12.3546 20.9033 13.0957 20.4462 13.5526L15.8501 18.1487C15.393 18.6058 14.6519 18.6058 14.195 18.1487C13.7379 17.6917 13.7379 16.9505 14.195 16.4937L18.791 11.8975C19.248 11.4404 19.9892 11.4404 20.4462 11.8975Z" fill="white"/>
</g>
<defs>
<clipPath id="clip0_274755_1433">
<rect width="30" height="30" fill="white"/>
</clipPath>
</defs>
</svg>
